<mxfile host="app.diagrams.net" modified="2022-06-08T23:57:58.858Z" agent="5.0 (Windows NT 10.0; Win64; x64) AppleWebKit/537.36 (KHTML, like Gecko) Chrome/102.0.5005.63 Safari/537.36 Edg/102.0.1245.33" etag="r7OwHhi24r_dsDbH9kfk" version="19.0.1" type="github">
  <diagram id="kX3VDzR_7YKXMPeujfR7" name="Page-1">
    <mxGraphModel dx="1573" dy="638" grid="1" gridSize="10" guides="1" tooltips="1" connect="1" arrows="1" fold="1" page="1" pageScale="1" pageWidth="827" pageHeight="1169" math="0" shadow="0">
      <root>
        <mxCell id="0" />
        <mxCell id="1" parent="0" />
        <mxCell id="aog7hyVDVLyCy8ViErFb-22" value="&lt;br&gt;&lt;span style=&quot;color: rgb(0, 0, 0); font-family: Helvetica; font-size: 12px; font-style: normal; font-variant-ligatures: normal; font-variant-caps: normal; font-weight: 400; letter-spacing: normal; orphans: 2; text-align: center; text-indent: 0px; text-transform: none; widows: 2; word-spacing: 0px; -webkit-text-stroke-width: 0px; background-color: rgb(248, 249, 250); text-decoration-thickness: initial; text-decoration-style: initial; text-decoration-color: initial; float: none; display: inline !important;&quot;&gt;«Composant»&lt;/span&gt;&lt;br style=&quot;color: rgb(0, 0, 0); font-family: Helvetica; font-size: 12px; font-style: normal; font-variant-ligatures: normal; font-variant-caps: normal; font-weight: 400; letter-spacing: normal; orphans: 2; text-align: center; text-indent: 0px; text-transform: none; widows: 2; word-spacing: 0px; -webkit-text-stroke-width: 0px; background-color: rgb(248, 249, 250); text-decoration-thickness: initial; text-decoration-style: initial; text-decoration-color: initial;&quot;&gt;&lt;b style=&quot;color: rgb(0, 0, 0); font-family: Helvetica; font-size: 12px; font-style: normal; font-variant-ligatures: normal; font-variant-caps: normal; letter-spacing: normal; orphans: 2; text-align: center; text-indent: 0px; text-transform: none; widows: 2; word-spacing: 0px; -webkit-text-stroke-width: 0px; background-color: rgb(248, 249, 250); text-decoration-thickness: initial; text-decoration-style: initial; text-decoration-color: initial;&quot;&gt;Questionnaire Page&lt;/b&gt;&lt;br&gt;" style="html=1;dropTarget=0;spacingTop=-354;" vertex="1" parent="1">
          <mxGeometry x="490" y="225" width="440" height="375" as="geometry" />
        </mxCell>
        <mxCell id="aog7hyVDVLyCy8ViErFb-23" value="" style="shape=module;jettyWidth=8;jettyHeight=4;" vertex="1" parent="aog7hyVDVLyCy8ViErFb-22">
          <mxGeometry x="1" width="20" height="20" relative="1" as="geometry">
            <mxPoint x="-27" y="7" as="offset" />
          </mxGeometry>
        </mxCell>
        <mxCell id="aog7hyVDVLyCy8ViErFb-1" value="«Composant»&lt;br&gt;&lt;b&gt;Login Page&lt;/b&gt;" style="html=1;dropTarget=0;" vertex="1" parent="1">
          <mxGeometry x="140" y="300" width="160" height="70" as="geometry" />
        </mxCell>
        <mxCell id="aog7hyVDVLyCy8ViErFb-2" value="" style="shape=module;jettyWidth=8;jettyHeight=4;" vertex="1" parent="aog7hyVDVLyCy8ViErFb-1">
          <mxGeometry x="1" width="20" height="20" relative="1" as="geometry">
            <mxPoint x="-27" y="7" as="offset" />
          </mxGeometry>
        </mxCell>
        <mxCell id="aog7hyVDVLyCy8ViErFb-9" value="Logged:true" style="text;html=1;align=center;verticalAlign=middle;resizable=0;points=[];autosize=1;strokeColor=none;fillColor=none;" vertex="1" parent="1">
          <mxGeometry x="312" y="311" width="80" height="20" as="geometry" />
        </mxCell>
        <mxCell id="aog7hyVDVLyCy8ViErFb-24" style="edgeStyle=orthogonalEdgeStyle;rounded=0;orthogonalLoop=1;jettySize=auto;html=1;entryX=0.5;entryY=0;entryDx=0;entryDy=0;endArrow=none;endFill=0;" edge="1" parent="1" source="aog7hyVDVLyCy8ViErFb-10" target="aog7hyVDVLyCy8ViErFb-16">
          <mxGeometry relative="1" as="geometry" />
        </mxCell>
        <mxCell id="aog7hyVDVLyCy8ViErFb-26" style="edgeStyle=orthogonalEdgeStyle;rounded=0;orthogonalLoop=1;jettySize=auto;html=1;exitX=1;exitY=0.5;exitDx=0;exitDy=0;entryX=0;entryY=0.5;entryDx=0;entryDy=0;endArrow=none;endFill=0;" edge="1" parent="1" source="aog7hyVDVLyCy8ViErFb-10" target="aog7hyVDVLyCy8ViErFb-20">
          <mxGeometry relative="1" as="geometry" />
        </mxCell>
        <mxCell id="aog7hyVDVLyCy8ViErFb-10" value="Eleve.cs" style="html=1;dropTarget=0;" vertex="1" parent="1">
          <mxGeometry x="502" y="300" width="136" height="70" as="geometry" />
        </mxCell>
        <mxCell id="aog7hyVDVLyCy8ViErFb-11" value="" style="shape=module;jettyWidth=8;jettyHeight=4;" vertex="1" parent="aog7hyVDVLyCy8ViErFb-10">
          <mxGeometry x="1" width="20" height="20" relative="1" as="geometry">
            <mxPoint x="-27" y="7" as="offset" />
          </mxGeometry>
        </mxCell>
        <mxCell id="aog7hyVDVLyCy8ViErFb-12" value="DataBase" style="html=1;dropTarget=0;" vertex="1" parent="1">
          <mxGeometry x="150" y="510" width="140" height="60" as="geometry" />
        </mxCell>
        <mxCell id="aog7hyVDVLyCy8ViErFb-13" value="" style="shape=module;jettyWidth=8;jettyHeight=4;" vertex="1" parent="aog7hyVDVLyCy8ViErFb-12">
          <mxGeometry x="1" width="20" height="20" relative="1" as="geometry">
            <mxPoint x="-27" y="7" as="offset" />
          </mxGeometry>
        </mxCell>
        <mxCell id="aog7hyVDVLyCy8ViErFb-25" style="edgeStyle=orthogonalEdgeStyle;rounded=0;orthogonalLoop=1;jettySize=auto;html=1;entryX=0.5;entryY=0;entryDx=0;entryDy=0;endArrow=none;endFill=0;" edge="1" parent="1" source="aog7hyVDVLyCy8ViErFb-16" target="aog7hyVDVLyCy8ViErFb-18">
          <mxGeometry relative="1" as="geometry" />
        </mxCell>
        <mxCell id="aog7hyVDVLyCy8ViErFb-16" value="Questionnaire.cs" style="html=1;dropTarget=0;" vertex="1" parent="1">
          <mxGeometry x="500" y="410" width="140" height="70" as="geometry" />
        </mxCell>
        <mxCell id="aog7hyVDVLyCy8ViErFb-17" value="" style="shape=module;jettyWidth=8;jettyHeight=4;" vertex="1" parent="aog7hyVDVLyCy8ViErFb-16">
          <mxGeometry x="1" width="20" height="20" relative="1" as="geometry">
            <mxPoint x="-27" y="7" as="offset" />
          </mxGeometry>
        </mxCell>
        <mxCell id="aog7hyVDVLyCy8ViErFb-18" value="Question.cs" style="html=1;dropTarget=0;" vertex="1" parent="1">
          <mxGeometry x="500" y="510" width="140" height="70" as="geometry" />
        </mxCell>
        <mxCell id="aog7hyVDVLyCy8ViErFb-19" value="" style="shape=module;jettyWidth=8;jettyHeight=4;" vertex="1" parent="aog7hyVDVLyCy8ViErFb-18">
          <mxGeometry x="1" width="20" height="20" relative="1" as="geometry">
            <mxPoint x="-27" y="7" as="offset" />
          </mxGeometry>
        </mxCell>
        <mxCell id="aog7hyVDVLyCy8ViErFb-20" value="EleveReponse.cs" style="html=1;dropTarget=0;" vertex="1" parent="1">
          <mxGeometry x="700" y="300" width="140" height="70" as="geometry" />
        </mxCell>
        <mxCell id="aog7hyVDVLyCy8ViErFb-21" value="" style="shape=module;jettyWidth=8;jettyHeight=4;" vertex="1" parent="aog7hyVDVLyCy8ViErFb-20">
          <mxGeometry x="1" width="20" height="20" relative="1" as="geometry">
            <mxPoint x="-27" y="7" as="offset" />
          </mxGeometry>
        </mxCell>
        <mxCell id="aog7hyVDVLyCy8ViErFb-30" value="" style="rounded=0;orthogonalLoop=1;jettySize=auto;html=1;endArrow=none;endFill=0;sketch=0;sourcePerimeterSpacing=0;targetPerimeterSpacing=0;exitX=0.5;exitY=0;exitDx=0;exitDy=0;" edge="1" parent="1" source="aog7hyVDVLyCy8ViErFb-12">
          <mxGeometry relative="1" as="geometry">
            <mxPoint x="310" y="425" as="sourcePoint" />
            <mxPoint x="220" y="440" as="targetPoint" />
          </mxGeometry>
        </mxCell>
        <mxCell id="aog7hyVDVLyCy8ViErFb-31" value="" style="rounded=0;orthogonalLoop=1;jettySize=auto;html=1;endArrow=halfCircle;endFill=0;endSize=6;strokeWidth=1;sketch=0;exitX=0.5;exitY=1;exitDx=0;exitDy=0;" edge="1" parent="1" source="aog7hyVDVLyCy8ViErFb-1">
          <mxGeometry relative="1" as="geometry">
            <mxPoint x="290" y="420" as="sourcePoint" />
            <mxPoint x="220" y="430" as="targetPoint" />
          </mxGeometry>
        </mxCell>
        <mxCell id="aog7hyVDVLyCy8ViErFb-32" value="" style="ellipse;whiteSpace=wrap;html=1;align=center;aspect=fixed;resizable=0;points=[];outlineConnect=0;sketch=0;" vertex="1" parent="1">
          <mxGeometry x="215" y="430" width="10" height="10" as="geometry" />
        </mxCell>
        <mxCell id="aog7hyVDVLyCy8ViErFb-33" value="" style="rounded=0;orthogonalLoop=1;jettySize=auto;html=1;endArrow=none;endFill=0;sketch=0;sourcePerimeterSpacing=0;targetPerimeterSpacing=0;exitX=0;exitY=0.25;exitDx=0;exitDy=0;" edge="1" parent="1">
          <mxGeometry relative="1" as="geometry">
            <mxPoint x="490" y="340" as="sourcePoint" />
            <mxPoint x="410" y="340" as="targetPoint" />
          </mxGeometry>
        </mxCell>
        <mxCell id="aog7hyVDVLyCy8ViErFb-34" value="" style="rounded=0;orthogonalLoop=1;jettySize=auto;html=1;endArrow=halfCircle;endFill=0;endSize=6;strokeWidth=1;sketch=0;exitX=1;exitY=0.5;exitDx=0;exitDy=0;" edge="1" parent="1">
          <mxGeometry relative="1" as="geometry">
            <mxPoint x="300" y="340" as="sourcePoint" />
            <mxPoint x="400" y="340" as="targetPoint" />
          </mxGeometry>
        </mxCell>
        <mxCell id="aog7hyVDVLyCy8ViErFb-35" value="" style="ellipse;whiteSpace=wrap;html=1;align=center;aspect=fixed;resizable=0;points=[];outlineConnect=0;sketch=0;" vertex="1" parent="1">
          <mxGeometry x="400" y="335" width="10" height="10" as="geometry" />
        </mxCell>
        <mxCell id="aog7hyVDVLyCy8ViErFb-36" value="" style="rounded=0;orthogonalLoop=1;jettySize=auto;html=1;endArrow=none;endFill=0;sketch=0;sourcePerimeterSpacing=0;targetPerimeterSpacing=0;exitX=1;exitY=0.5;exitDx=0;exitDy=0;" edge="1" target="aog7hyVDVLyCy8ViErFb-38" parent="1" source="aog7hyVDVLyCy8ViErFb-12">
          <mxGeometry relative="1" as="geometry">
            <mxPoint x="360" y="545" as="sourcePoint" />
          </mxGeometry>
        </mxCell>
        <mxCell id="aog7hyVDVLyCy8ViErFb-37" value="" style="rounded=0;orthogonalLoop=1;jettySize=auto;html=1;endArrow=halfCircle;endFill=0;entryX=0.5;entryY=0.5;endSize=6;strokeWidth=1;sketch=0;" edge="1" target="aog7hyVDVLyCy8ViErFb-38" parent="1">
          <mxGeometry relative="1" as="geometry">
            <mxPoint x="489" y="540" as="sourcePoint" />
          </mxGeometry>
        </mxCell>
        <mxCell id="aog7hyVDVLyCy8ViErFb-38" value="" style="ellipse;whiteSpace=wrap;html=1;align=center;aspect=fixed;resizable=0;points=[];outlineConnect=0;sketch=0;" vertex="1" parent="1">
          <mxGeometry x="375" y="535" width="10" height="10" as="geometry" />
        </mxCell>
      </root>
    </mxGraphModel>
  </diagram>
</mxfile>
